<?xml version="1.0" standalone="no"?>
<!DOCTYPE svg PUBLIC "-//W3C//DTD SVG 20010904//EN"
 "http://www.w3.org/TR/2001/REC-SVG-20010904/DTD/svg10.dtd">
<svg version="1.0" xmlns="http://www.w3.org/2000/svg"
 width="700.000000pt" height="700.000000pt" viewBox="0 0 700.000000 700.000000"
 preserveAspectRatio="xMidYMid meet">
<metadata>
Created by potrace 1.11, written by Peter Selinger 2001-2013
</metadata>
<g transform="translate(0.000000,700.000000) scale(0.100000,-0.100000)"
fill="#000000" stroke="none">
<path d="M4220 6083 c-82 -28 -150 -90 -186 -168 -12 -27 -147 -392 -299 -810
-152 -418 -280 -769 -284 -780 -5 -11 -16 -40 -24 -65 -9 -25 -38 -106 -66
-180 -27 -74 -133 -367 -236 -650 -102 -283 -191 -526 -196 -540 -6 -14 -24
-63 -41 -110 -16 -47 -33 -94 -38 -105 -5 -11 -86 -234 -181 -495 -94 -261
-185 -511 -201 -555 -130 -353 -138 -393 -109 -492 44 -144 176 -238 327 -232
134 6 238 80 289 207 15 37 31 76 36 87 6 17 206 566 334 920 18 50 52 142 75
205 23 63 60 165 81 225 22 61 43 119 48 130 5 11 19 49 31 85 13 36 44 124
70 195 27 72 94 256 150 410 56 154 120 330 142 390 22 61 58 160 80 220 22
61 46 126 53 145 16 40 99 270 174 480 29 80 59 161 66 180 8 19 87 235 175
478 171 473 178 500 153 602 -45 177 -247 284 -423 223z"/>
<path d="M1650 5087 c-25 -7 -57 -20 -71 -28 -25 -13 -134 -108 -335 -289 -21
-20 -84 -76 -139 -125 -55 -50 -117 -106 -139 -125 -21 -19 -48 -44 -60 -55
-12 -11 -63 -56 -112 -101 -49 -45 -107 -96 -128 -115 -22 -19 -49 -43 -61
-54 -11 -11 -59 -54 -105 -95 -46 -41 -107 -96 -134 -121 -28 -25 -100 -90
-161 -145 -129 -116 -128 -116 -159 -174 -54 -103 -52 -197 6 -315 25 -52 44
-72 163 -179 55 -48 120 -107 145 -130 25 -23 88 -80 140 -126 52 -47 102 -92
110 -100 8 -8 35 -33 60 -54 25 -22 83 -74 130 -116 47 -42 137 -123 200 -180
63 -57 140 -126 171 -154 56 -51 156 -142 304 -275 100 -90 163 -121 253 -125
105 -5 194 33 261 110 57 64 76 117 76 214 0 136 -26 178 -210 342 -33 29 -89
80 -125 113 -36 33 -106 96 -155 140 -48 44 -93 85 -99 90 -6 6 -54 48 -106
95 -121 109 -104 93 -200 180 -46 41 -93 83 -104 93 -12 10 -57 51 -100 90
-44 40 -95 86 -113 102 l-34 30 62 55 c34 30 67 59 73 65 6 5 54 48 106 95 52
47 99 90 105 96 5 5 51 46 100 90 50 43 97 86 105 94 8 8 53 49 100 90 47 41
87 77 90 81 3 3 52 48 110 99 58 52 123 111 145 131 22 20 65 58 96 85 100 89
143 159 152 254 18 180 -120 344 -300 356 -40 2 -87 -2 -113 -9z"/>
<path d="M5154 5075 c-158 -53 -249 -222 -207 -385 23 -91 41 -114 203 -260
63 -57 155 -140 204 -184 49 -44 98 -89 110 -99 11 -10 54 -48 94 -85 41 -36
82 -73 91 -81 10 -9 55 -50 101 -91 98 -89 79 -72 215 -194 61 -54 134 -121
162 -147 l53 -49 -37 -32 c-20 -18 -41 -38 -47 -43 -6 -6 -49 -44 -96 -85 -46
-41 -91 -82 -100 -91 -8 -9 -60 -56 -115 -104 -55 -49 -118 -105 -140 -126
-22 -20 -67 -61 -100 -90 -33 -29 -62 -55 -65 -58 -3 -3 -45 -42 -95 -86 -49
-44 -96 -87 -105 -95 -9 -8 -39 -35 -66 -59 -264 -235 -279 -258 -279 -406 1
-77 5 -97 27 -140 79 -151 252 -221 405 -163 31 11 62 25 67 29 19 15 228 200
321 284 50 45 162 146 250 225 88 79 162 146 165 149 3 3 46 42 95 86 50 44
95 85 101 90 6 6 46 42 89 80 43 39 88 79 99 90 12 11 62 56 111 100 237 211
263 238 292 303 48 104 45 221 -9 313 -15 25 -66 81 -114 125 -49 43 -95 86
-104 94 -9 8 -54 49 -100 90 -46 41 -91 82 -100 90 -8 8 -123 112 -255 230
-132 118 -260 233 -285 256 -72 65 -251 227 -365 329 -43 39 -97 87 -119 108
-100 93 -229 123 -352 82z"/>
</g>
</svg>
